<?xml version="1.0" encoding="utf-8"?>
<!-- Generator: Adobe Illustrator 25.3.1, SVG Export Plug-In . SVG Version: 6.00 Build 0)  -->
<svg version="1.1" id="Layer_1" xmlns="http://www.w3.org/2000/svg" xmlns:xlink="http://www.w3.org/1999/xlink" x="0px" y="0px"
	 viewBox="0 0 24 24" style="enable-background:new 0 0 24 24;" xml:space="preserve">
<style type="text/css">
	.st0{fill:#666666;}
</style>
<path class="st0" d="M12,0C5.4,0,0,5.4,0,12s5.4,12,12,12s12-5.4,12-12S18.6,0,12,0z M12,5.8c0.7,0,1.3,0.6,1.3,1.2S12.7,8.2,12,8.2
	S10.8,7.7,10.8,7S11.3,5.8,12,5.8z M14,18h-4v-1c0.5-0.2,1-0.2,1-0.7v-4.5c0-0.5-0.5-0.6-1-0.8v-1h3v6.3c0,0.5,0.5,0.6,1,0.7V18z"/>
</svg>
